<svg xmlns="http://www.w3.org/2000/svg" width="102" height="31" viewBox="0 0 102 31" fill="none">
  <path d="M8 5.16644C8 4.23819 7.63125 3.34795 6.97487 2.69157C6.3185 2.03519 5.42826 1.66644 4.5 1.66644C3.57174 1.66644 2.6815 2.03519 2.02513 2.69157C1.36875 3.34795 1 4.23819 1 5.16644C1 6.0947 1.36875 6.98494 2.02513 7.64132C2.6815 8.29769 3.57174 8.66644 4.5 8.66644C5.42826 8.66644 6.3185 8.29769 6.97487 7.64132C7.63125 6.98494 8 6.0947 8 5.16644Z" stroke="#B89454" stroke-width="0.8" stroke-miterlimit="10"/>
  <path d="M5 5.16644C5 4.88867 4.77778 4.66644 4.5 4.66644C4.22222 4.66644 4 4.88867 4 5.16644C4 5.44422 4.22222 5.66644 4.5 5.66644C4.77778 5.66644 5 5.44422 5 5.16644Z" fill="#B89454"/>
  <path d="M55.3105 3.40981C55.5499 3.40993 55.7891 3.42361 56.0269 3.45075C56.8869 3.54991 57.7156 3.83106 58.4572 4.27527C59.1987 4.71948 59.8358 5.31642 60.3256 6.02591C60.8154 6.73539 61.1465 7.54093 61.2966 8.38828C61.4468 9.23563 61.4124 10.1051 61.1959 10.9381L56.5275 24.0833C56.1321 25.1755 56.1345 26.3708 56.5344 27.4614C56.9342 28.552 57.7062 29.4688 58.7159 30.0522C59.3624 30.4012 60.0773 30.607 60.8114 30.6553C61.5456 30.7037 62.2815 30.5935 62.9688 30.3324C63.656 30.0713 64.2781 29.6654 64.7925 29.1426C65.3068 28.6199 65.7012 27.9926 65.9484 27.3041C65.9958 27.1757 66.0109 27.0377 65.9922 26.9022C65.9735 26.7666 65.9217 26.6377 65.8412 26.5268C65.7543 26.4027 65.6385 26.3013 65.5037 26.2312C65.3689 26.1611 65.219 26.1244 65.0669 26.1241C64.8924 26.1312 64.7246 26.1924 64.5868 26.2989C64.449 26.4055 64.3482 26.5522 64.2984 26.7185C64.0633 27.3614 63.6353 27.9172 63.0723 28.3107C62.5093 28.7043 61.8382 28.9167 61.1499 28.9194C60.593 28.9218 60.0446 28.7847 59.5552 28.5208C58.9085 28.136 58.4179 27.5382 58.1686 26.8313C57.9193 26.1245 57.9271 25.3532 58.1905 24.6514C62.863 11.4912 62.863 11.4912 62.8685 11.4779C63.1742 10.4632 63.2423 9.39246 63.0677 8.34757C62.7905 6.40074 61.7807 4.63076 60.2421 3.39447C58.7035 2.15818 56.7503 1.54753 54.7765 1.68565C52.8027 1.82376 50.955 2.70036 49.6059 4.13871C48.2568 5.57706 47.5066 7.47019 47.5067 9.4364C47.5062 10.101 47.5925 10.7628 47.7636 11.4052L48.4761 13.4358C48.5073 13.525 48.5137 13.621 48.4946 13.7136C48.4754 13.8061 48.4314 13.8918 48.3673 13.9616C48.3031 14.0313 48.2212 14.0826 48.1302 14.1098C48.0391 14.1371 47.9423 14.1394 47.8501 14.1165C47.4316 14.0144 47.0022 13.9634 46.5713 13.9647C45.8282 13.9658 45.0928 14.1144 44.4083 14.4018C43.7238 14.6892 43.1039 15.1095 42.5851 15.6382C42.0663 16.1668 41.659 16.7931 41.387 17.4803C41.1151 18.1675 40.984 18.9017 41.0015 19.6399C41.0144 20.0244 41.066 20.4067 41.1554 20.781C41.3536 21.5509 41.7146 22.27 42.2144 22.8905C42.7142 23.5109 43.3413 24.0184 44.0539 24.3791C44.7394 24.7409 45.4945 24.9535 46.2691 25.0027C47.0437 25.0519 47.8199 24.9366 48.5461 24.6644C49.8843 24.108 50.9619 23.0702 51.5634 21.7584C52.1649 20.4467 52.246 18.9578 51.7905 17.5892L49.463 10.9504C49.3322 10.4562 49.2656 9.94743 49.2648 9.43643C49.2667 8.58849 49.4479 7.75042 49.7967 6.97654C50.1455 6.20267 50.6541 5.51028 51.2895 4.94427C52.3916 3.95439 53.8249 3.40742 55.3105 3.40981ZM46.5713 23.28C45.8178 23.2807 45.0811 23.0593 44.4543 22.6437C43.8275 22.2282 43.3389 21.6372 43.0502 20.9456C42.7616 20.254 42.6859 19.4929 42.8327 18.7585C42.9795 18.0241 43.3423 17.3496 43.8751 16.8201C44.4079 16.2907 45.0867 15.9302 45.8258 15.7843C46.5648 15.6384 47.3308 15.7137 48.0268 16.0005C48.7228 16.2873 49.3175 16.7729 49.7357 17.3957C50.1539 18.0185 50.3767 18.7506 50.3761 19.4993C50.3741 20.5014 49.9726 21.4619 49.2595 22.1705C48.5464 22.8791 47.5798 23.2781 46.5713 23.28Z" fill="#B89454"/>
  <path d="M69 8.19449L75.5821 1.66644M75.5821 1.66644V5.73519M75.5821 1.66644H71.4797" stroke="#B89454" stroke-width="0.8" stroke-miterlimit="10" stroke-linecap="round" stroke-linejoin="round"/>
  <path d="M78.5343 21.4893C80.0006 21.4866 81.4061 20.8588 82.4424 19.7437C83.4787 18.6285 84.061 17.1171 84.0617 15.5411C84.0649 14.5437 83.8325 13.5618 83.3861 12.6874C82.9398 11.8129 82.2942 11.0746 81.5099 10.5416C81.4247 10.4836 81.357 10.4004 81.3147 10.302C81.2725 10.2036 81.2575 10.0942 81.2717 9.98696C81.2859 9.87968 81.3285 9.77907 81.3945 9.6972C81.4606 9.61533 81.5472 9.55568 81.644 9.5254C84.4715 8.67107 87.4166 8.35631 90.3453 8.59542C93.9603 8.91404 97.4797 10.0048 100.697 11.8039C100.848 11.8943 101.019 11.9351 101.191 11.9211C101.363 11.907 101.527 11.8389 101.663 11.7251C101.799 11.6113 101.9 11.457 101.955 11.2814C102.009 11.1058 102.015 10.9169 101.97 10.7381C101.941 10.6183 101.89 10.5061 101.819 10.4088C101.748 10.3115 101.659 10.2312 101.557 10.173C98.134 8.18932 94.3576 7.01077 90.4784 6.71559C89.8636 6.68294 89.2597 6.66656 88.6667 6.66644C83.361 6.66644 78.939 7.97711 75.5024 10.572C74.8028 11.0727 74.2166 11.7355 73.7867 12.5117C73.3567 13.2879 73.0941 14.1577 73.0181 15.0574C73.0058 15.2191 72.9998 15.3803 73 15.5411C73.0016 17.1181 73.5852 18.63 74.6227 19.7451C75.6603 20.8603 77.067 21.4875 78.5343 21.4893ZM76.4151 12.1768C77.0389 11.7175 77.7782 11.4737 78.5343 11.4778C79.4427 11.4767 80.3214 11.8263 81.0102 12.4629C81.6991 13.0994 82.1524 13.9807 82.2877 14.9462C82.4229 15.9118 82.2311 16.8974 81.7471 17.7238C81.2632 18.5501 80.5192 19.1622 79.6507 19.4487C78.7822 19.7351 77.8469 19.6769 77.015 19.2846C76.1831 18.8922 75.5099 18.1919 75.1179 17.311C74.726 16.4302 74.6413 15.4273 74.8794 14.485C75.1175 13.5427 75.6624 12.7236 76.4151 12.1768ZM96.4652 14.8443C94.9988 14.847 93.5933 15.4748 92.557 16.59C91.5208 17.7051 90.9384 19.2165 90.9377 20.7925C90.9344 21.7899 91.1668 22.7719 91.6132 23.6463C92.0595 24.5208 92.7051 25.2591 93.4895 25.792C93.5747 25.85 93.6424 25.9332 93.6847 26.0316C93.7269 26.13 93.7419 26.2394 93.7277 26.3466C93.7136 26.4539 93.6709 26.5545 93.6049 26.6364C93.5388 26.7183 93.4522 26.7779 93.3554 26.8082C90.5277 27.6616 87.5828 27.9764 84.6541 27.7382C81.0392 27.4196 77.5197 26.3288 74.302 24.5298C74.169 24.4534 74.0205 24.4132 73.8697 24.4128C73.7232 24.4121 73.5789 24.4515 73.4505 24.5273C73.3221 24.6032 73.2138 24.7129 73.1358 24.8462C73.0713 24.9567 73.0287 25.0802 73.0104 25.209C72.9922 25.3379 72.9987 25.4694 73.0296 25.5955C73.0581 25.7153 73.1095 25.8275 73.1806 25.9248C73.2517 26.0221 73.3409 26.1024 73.4425 26.1606C76.8654 28.1445 80.6418 29.323 84.521 29.618C90.637 29.9411 95.6769 28.6466 99.497 25.7616C100.197 25.2609 100.783 24.5981 101.213 23.8219C101.643 23.0457 101.905 22.1759 101.981 21.2762C101.994 21.1149 102 20.9537 101.999 20.7925C101.998 19.2155 101.414 17.7036 100.377 16.5885C99.3391 15.4733 97.9324 14.8461 96.4652 14.8443ZM98.5844 24.1568C97.9606 24.6161 97.2213 24.8599 96.4652 24.8558C95.5567 24.8568 94.6781 24.5073 93.9892 23.8707C93.3003 23.2341 92.847 22.3529 92.7118 21.3874C92.5766 20.4218 92.7684 19.4362 93.2523 18.6099C93.7363 17.7836 94.4802 17.1715 95.3487 16.885C96.2172 16.5986 97.1525 16.6568 97.9845 17.0491C98.8164 17.4414 99.4896 18.1418 99.8815 19.0226C100.273 19.9035 100.358 20.9063 100.12 21.8486C99.882 22.7909 99.337 23.61 98.5844 24.1568Z" fill="#B89454"/>
  <path d="M35.7537 28.9981C35.7534 29.2496 35.6526 29.4907 35.4733 29.6685C35.294 29.8464 35.0509 29.9464 34.7973 29.9466H4.95901C4.83319 29.947 4.70855 29.9227 4.59221 29.8752C4.47588 29.8277 4.37013 29.7578 4.28105 29.6697C4.19196 29.5816 4.12128 29.4769 4.07305 29.3617C4.02482 29.2464 4 29.1229 4 28.9981C4 28.8733 4.02482 28.7498 4.07305 28.6345C4.12128 28.5193 4.19196 28.4146 4.28105 28.3265C4.37013 28.2384 4.47588 28.1686 4.59221 28.1211C4.70855 28.0736 4.83319 28.0493 4.95901 28.0496H34.7973C35.0509 28.0499 35.294 28.1499 35.4733 28.3277C35.6526 28.5055 35.7534 28.7466 35.7537 28.9981ZM4.95901 23.8762H15.2877C15.5413 23.8762 15.7846 23.7763 15.9639 23.5984C16.1433 23.4205 16.2441 23.1793 16.2441 22.9277C16.2441 22.6762 16.1433 22.4349 15.9639 22.257C15.7846 22.0791 15.5413 21.9792 15.2877 21.9792H14.2319C14.1555 21.9792 14.0799 21.9641 14.0094 21.9347C13.939 21.9053 13.8752 21.8623 13.8217 21.8081C12.6592 20.6264 11.874 19.1308 11.5644 17.5087C11.2547 15.8865 11.4344 14.2098 12.0809 12.6884C12.7274 11.167 13.812 9.86859 15.1989 8.9556C16.5859 8.0426 18.2135 7.55562 19.8782 7.55562C21.5428 7.55562 23.1705 8.0426 24.5574 8.9556C25.9444 9.86859 27.029 11.167 27.6755 12.6884C28.322 14.2098 28.5016 15.8865 28.192 17.5087C27.8823 19.1308 27.0971 20.6264 25.9346 21.8081C25.8812 21.8623 25.8174 21.9053 25.7469 21.9347C25.6765 21.9641 25.6008 21.9792 25.5244 21.9792H24.4687C24.215 21.9792 23.9718 22.0791 23.7924 22.257C23.6131 22.4349 23.5123 22.6762 23.5123 22.9277C23.5123 23.1793 23.6131 23.4205 23.7924 23.5984C23.9718 23.7763 24.215 23.8762 24.4687 23.8762H34.7974C34.9294 23.8765 35.0601 23.8496 35.1811 23.7972C35.3022 23.7448 35.4109 23.6681 35.5006 23.572C35.5902 23.4758 35.6588 23.3623 35.702 23.2385C35.7452 23.1147 35.762 22.9834 35.7514 22.8529C35.7206 22.6077 35.599 22.3825 35.4103 22.2211C35.2216 22.0597 34.9792 21.9735 34.7301 21.9792H29.3423C29.2413 21.9791 29.1421 21.9527 29.0548 21.9024C28.9674 21.8522 28.8949 21.78 28.8447 21.6931C28.7944 21.6062 28.7682 21.5077 28.7686 21.4076C28.769 21.3074 28.796 21.2091 28.847 21.1226C29.7761 19.5438 30.2614 17.7469 30.2524 15.9189C30.2172 13.2951 29.183 10.7816 27.3573 8.88256C25.5316 6.98349 23.0494 5.8393 20.4087 5.67952C18.543 5.58618 16.6864 5.99384 15.0348 6.85952C13.3832 7.7252 11.9977 9.01682 11.0244 10.5982C10.0511 12.1796 9.52605 13.9921 9.50462 15.8447C9.48319 17.6973 9.96616 19.5213 10.9026 21.1245C10.9534 21.2109 10.9802 21.3091 10.9804 21.4092C10.9807 21.5092 10.9543 21.6075 10.904 21.6942C10.8536 21.7809 10.7812 21.8529 10.6938 21.9029C10.6065 21.953 10.5074 21.9793 10.4065 21.9792H4.95901C4.70621 21.9819 4.46454 22.0827 4.28578 22.26C4.10702 22.4373 4.00539 22.677 4.00266 22.9278C4.0029 23.1792 4.10373 23.4204 4.28303 23.5982C4.46233 23.776 4.70544 23.876 4.95901 23.8762Z" fill="#B89454"/>
  <path d="M42.2237 7.52007C42.1967 7.4627 42.1532 7.41496 42.0988 7.38299C42.0444 7.35102 41.9816 7.3363 41.9184 7.34072C41.2527 7.38767 40.5918 7.21506 40.0357 6.84899C39.4797 6.48292 39.0588 5.94331 38.8366 5.31178C38.6189 4.63912 38.638 3.90941 38.8907 3.24498C39.1435 2.58055 39.6146 2.0218 40.2249 1.66241C40.2799 1.6302 40.3244 1.58238 40.3527 1.52497C40.381 1.46757 40.3918 1.40317 40.3838 1.3399C40.3758 1.27662 40.3494 1.21732 40.3078 1.16948C40.2663 1.12164 40.2115 1.0874 40.1503 1.0711C39.4326 0.878733 38.6751 0.883947 37.9564 1.0862C37.2378 1.28845 36.5844 1.68037 36.0639 2.22123C35.5434 2.76209 35.175 3.43218 34.9968 4.16188C34.8186 4.89157 34.8372 5.65427 35.0506 6.37073C35.264 7.08719 35.6645 7.73129 36.2104 8.23612C36.7564 8.74094 37.4279 9.08808 38.1552 9.24147C38.8824 9.39486 39.639 9.3489 40.3462 9.10838C41.0534 8.86786 41.6855 8.44154 42.1768 7.87371C42.2181 7.82558 42.2446 7.7664 42.253 7.70352C42.2613 7.64063 42.2511 7.57684 42.2237 7.52007ZM38.1302 8.54853C37.29 8.32372 36.5649 7.79288 36.0947 7.05827C35.6244 6.32366 35.4422 5.43727 35.5832 4.56987C35.7242 3.70247 36.1784 2.91543 36.8583 2.36039C37.5382 1.80535 38.3957 1.52157 39.2656 1.56374C38.7285 2.05349 38.3443 2.68975 38.1603 3.3939C37.9764 4.09805 38.0008 4.83921 38.2306 5.52576C38.4516 6.16142 38.8406 6.72295 39.3561 7.15016C39.8716 7.57738 40.494 7.85418 41.1567 7.95088C40.7288 8.27609 40.2337 8.49903 39.7091 8.60262C39.1845 8.70621 38.6444 8.68771 38.1302 8.54853Z" fill="#B89454"/>
</svg>